<?xml version="1.0" encoding="UTF-8"?><svg id="Layer_3" xmlns="http://www.w3.org/2000/svg" viewBox="0 0 4096 1208"><path d="M19,880c-5.34,0-7.67-2.66-7-8l5-48c.66-5.33,3.66-8,9-8H362l-112-232-128,192c-2.67,2.67-5.34,4-8,4l-34-26c-2.67-1.33-4.5-3.33-5.5-6-1-2.66,.16-5.33,3.5-8l142-212L78,240l1-4,5-52c.66-5.33,3.66-8,9-8H493c5.33,0,7.66,2.67,7,8l-5,52-1,4-202,288,142,288-1,4-5,52c-.67,5.34-3.67,8-9,8H19Zm242-404l161-236H150l111,236Z"/><path d="M547,880c-5.34,0-7.67-2.66-7-8l5-48c.66-5.33,3.66-8,9-8h168l60-576h-136c-5.34,0-7.67-2.66-7-8l5-48c.66-5.33,3.66-8,9-8h336c5.33,0,7.66,2.67,7,8l-5,48c-.67,5.34-3.67,8-9,8h-136l-60,576h168c5.33,0,7.66,2.67,7,8l-5,48c-.67,5.34-3.67,8-9,8h-400Z"/><path d="M1059,880c-5.34,0-7.67-2.66-7-8l5-48c.66-5.33,3.66-8,9-8h304l-252-576,1-4,5-52c.66-5.33,3.66-8,9-8h368c5.33,0,7.66,2.67,7,8l-5,48c-.67,5.34-3.67,8-9,8h-300l248,576-1,4-5,52c-.67,5.34-3.67,8-9,8h-368Z"/><path d="M1905,828c-41.34,37.34-91.34,56-150,56s-104.67-18.66-138-56c-38.67-42.66-55.34-86.66-50-132l53-512c.66-5.33,3.66-8,9-8h48c5.33,0,7.66,2.67,7,8l-53,504c-3.34,34.67,9.33,66.67,38,96,22,24,53,36,93,36s73-12,99-36c35.33-32,54.66-64,58-96l53-504c.66-5.33,3.66-8,9-8h48c5.33,0,7.66,2.67,7,8l-53,512c-5.34,45.34-31.34,89.34-78,132Z"/><path d="M2237,880v-154h134v154h-134Z"/><path d="M2828,404c28.66,0,44.66,1.34,48,4l11-21c2-4.66,5.33-6,10-4l49,18c4,2,4.66,5.34,2,10l-10,22c7.33,2.67,22.66,18.34,46,47,35.33,45.34,49.66,100,43,164-6.67,61.34-32.34,114.67-77,160-48,53.34-105.34,80-172,80-44-.67-73.67-7-89-19l-7,11c-2,3.34-5.67,4.66-11,4l-48-23c-4-3.33-4.67-7-2-11l12-19c-10-6.66-22.67-29-38-67-2.67-5.33-1-9.33,5-12l42-24h8l4,4c4.66,14,10.33,24.67,17,32l167-292c-3.34-.66-9-.66-17,0-61.34,0-111,29.34-149,88-2.67,2.67-5.34,4-8,4h-4l-38-20c-4-2.66-5-6.66-3-12,56.66-82.66,126.33-124,209-124Zm-106,404c7.33,8,28,12,62,12,50.66,0,91.83-17.33,123.5-52,31.66-34.66,50.16-76,55.5-124,5.33-50.66-5.67-92.66-33-126-15.34-18.66-24.34-27.33-27-26l-181,316Z"/><path d="M3303,884c-58.67,0-105.67-23.33-141-70-35.34-46.66-49.34-103.33-42-170,7.33-66.66,33.33-123.33,78-170,44.66-46.66,96.33-70,155-70s105.66,23.34,141,70c35.33,46.67,48,103.34,38,170,0,2.67-.34,5.34-1,8-.67,5.34-3.67,8-9,8h-340c-2,45.34,9.5,83.34,34.5,114,25,30.67,56.16,46,93.5,46,56,0,104-34.66,144-104,.66-2.66,2.33-4,5-4l44,14c2.66,0,4.66,1.34,6,4,1.33,2.67,1.66,5.34,1,8-20.67,44-49.67,79.34-87,106-37.34,26.67-77.34,40-120,40Zm126-380c-23.34-24-51-36-83-36s-61.84,12-89.5,36c-27.67,24-48.84,54.67-63.5,92h280c-6.67-37.33-21.34-68-44-92Z"/><path d="M3690,880c-5.34,0-7.67-2.66-7-8l5-52c.66-2.66,1-5.33,1-8l107-144-141-328c0-2.66,.33-5.33,1-8,0-5.33,2.66-8,8-8l42-16c2.66,0,5.33,1.34,8,4l125,296,187-296c2.66-2.66,5.33-4,8-4l38,16c5.33,0,8,2.67,8,8-.67,2.67-1,5.34-1,8l-211,328,77,144c0,2.67-.34,5.34-1,8l-5,52c-.67,5.34-3.67,8-9,8h-240Zm75-64h104l-44-84-60,84Z"/></svg>