<?xml version="1.0" encoding="UTF-8"?><svg id="Layer_1" xmlns="http://www.w3.org/2000/svg" viewBox="0 0 408.09 118.3"><defs><style>.cls-1{fill:#231f20;}</style></defs><path class="cls-1" d="M0,85.91v-5.63H12.95V9.21H0V3.59H50c9.76,0,17.5,2.2,23.21,6.59s8.58,10,8.58,16.82-2.94,12.29-8.81,16.41c-5.87,4.12-13.14,6.18-21.8,6.18H30v30.7h12.95v5.63c-3.05-.23-10.21-.35-21.47-.35s-18.43,.12-21.47,.35ZM29.3,44.78h16.05c2.46,0,4.68-.21,6.65-.62,1.97-.41,3.59-.88,4.86-1.41,1.27-.53,2.34-1.31,3.22-2.34,.88-1.03,1.54-1.97,1.99-2.81,.45-.84,.77-1.98,.97-3.43,.19-1.44,.31-2.61,.35-3.49,.04-.88,.06-2.12,.06-3.72,0-1.91-.04-3.37-.12-4.37-.08-1-.25-2.31-.53-3.96-.27-1.64-.79-2.92-1.55-3.84-.76-.92-1.79-1.85-3.08-2.81-1.29-.96-3.01-1.66-5.16-2.11-2.15-.45-4.67-.67-7.56-.67H29.3V44.78Z"/><path class="cls-1" d="M53.46,85.91v-5.63h12.95V9.21h-12.95V3.67c3.05,.23,10.2,.27,21.47,.27s18.43-.12,21.47-.35v5.62h-12.95V47.65L127.87,10.56c-.31-.08-.49-.16-.53-.23,0-.16-.35-.31-1.05-.47-1.99-.39-4.32-.6-6.97-.64V3.59c2.89,.23,8.73,.35,17.52,.35,4.96,0,9.04,.27,12.25,.04v5.23h-2.05c-5.74,0-9.49,.72-11.25,2.17l-28.83,24.02,32.4,42.48c.78,1.05,1.58,1.72,2.4,1.99,.82,.27,2.75,.41,5.8,.41h3.46v5.63c-2.97-.23-8.81-.35-17.52-.35-10.78,0-17.83,.12-21.15,.35v-5.63c4.41,0,7.34-.33,8.79-1-.39-.9-.7-1.44-.94-1.64l-24.73-32.52-12.01,9.96v25.2h12.95v5.63c-3.05-.23-10.21-.35-21.47-.35s-18.43,.12-21.47,.35Z"/><path class="cls-1" d="M121.42,40.25v-5.29c3.05,.23,10.2,.01,21.47,.01s18.43-.12,21.47-.35v5.62h-12.95v49.96c0,1.99,.06,3.68,.18,5.04,.12,1.37,.56,3.25,1.32,5.66,.76,2.4,1.83,4.37,3.19,5.89,1.37,1.52,3.47,2.88,6.3,4.08,2.83,1.19,6.24,1.79,10.22,1.79,3.44,0,6.66-.42,9.67-1.26,3.01-.84,5.77-2.14,8.29-3.9,2.52-1.76,4.52-4.22,6.01-7.39,1.48-3.17,2.23-6.86,2.23-11.08V43.77c0-1.37-.17-2.19-.5-2.46-.33-.27-1.37-.51-3.12-.7-2.14-.23-4.24-.35-6.3-.35h-2.97v-5.62c3.28,.23,8.66,.35,16.14,.35s13.04-.12,16.08-.35v5.62h-3.03c-2.37,0-4.51,.12-6.42,.35-1.67,.16-2.67,.38-3,.67-.33,.29-.5,1.12-.5,2.49v45.74c0,8-2.82,14.79-8.45,20.39-5.63,5.6-13.83,8.4-24.59,8.4-11.92,0-21.19-2.74-27.83-8.23-6.64-5.49-9.96-12.43-9.96-20.83V40.25h-12.95Z"/><path class="cls-1" d="M192.75,29.56l2.52-28.89h80.74l2.52,28.89h-5.62c-.31-3.36-.59-5.94-.82-7.73-.23-1.8-.77-3.88-1.61-6.24-.84-2.36-1.9-4.1-3.19-5.21-1.29-1.11-3.1-2.07-5.42-2.87-2.32-.8-5.17-1.2-8.53-1.2h-9.08V76.03h18.34v5.63c-4.34-.23-13.3-.35-26.89-.35s-22.56,.12-26.89,.35v-5.63h18.4V6.3h-9.26c-3.36,0-6.22,.42-8.58,1.26-2.36,.84-4.18,1.82-5.45,2.93-1.27,1.11-2.31,2.83-3.11,5.16-.8,2.32-1.35,4.39-1.64,6.18-.29,1.8-.56,4.38-.79,7.73h-5.62Z"/><path class="cls-1" d="M253.12,114.28v-5.63h12.95V38.28h-12.95v-5.62h74.53l3.69,28.95h-5.62c-.39-3.29-.85-6-1.38-8.14-.53-2.13-1.35-4.24-2.46-6.31s-2.51-3.72-4.19-4.93c-1.68-1.21-3.89-2.17-6.62-2.88-2.73-.71-5.98-1.06-9.73-1.06h-18.22v30.88h6.62c5.35,0,8.81-1.08,10.37-3.25,1.56-2.17,2.34-5.77,2.34-10.81h5.62v33.75h-5.62c0-5.04-.78-8.64-2.34-10.81-1.56-2.17-5.02-3.25-10.37-3.25h-6.62v33.87h18.22c3.59,0,6.78-.26,9.55-.79s5.12-1.41,7.03-2.64c1.91-1.23,3.53-2.55,4.86-3.96,1.33-1.41,2.43-3.25,3.31-5.54s1.52-4.47,1.93-6.55,.91-4.67,1.51-7.77h5.68l-5.56,32.87h-76.53Z"/><path class="cls-1" d="M312,82.32v-5.63h3.46c2.46,0,4.9-.12,7.32-.35,1.84-.16,3.02-.36,3.54-.62,.53-.25,1.06-.73,1.61-1.44l24.26-31.82-26.66-36.86h-11.78V0c2.81,.23,9.3,.35,19.45,.35,11.21,0,18.46-.12,21.74-.35V5.63h-9.96l17.17,23.67,15.82-21.04c.08-.08,.23-.29,.47-.64s.39-.57,.47-.64c-2.81-.9-6.48-1.35-11.02-1.35V0c2.89,.23,8.96,.35,18.22,.35,7.34,0,12.71-.12,16.11-.35V5.63h-3.52c-2.73,0-5.04,.12-6.91,.35-2.07,.16-3.37,.34-3.9,.56-.53,.22-1.12,.75-1.79,1.61l-20.16,26.54,30.35,42.01h11.78v5.63c-2.81-.23-9.3-.35-19.45-.35-11.21,0-18.44,.12-21.68,.35v-5.63h9.96l-20.92-28.95-19.8,26.31c-.08,.08-.23,.29-.47,.64s-.39,.57-.47,.64c2.81,.9,6.48,1.35,11.02,1.35v5.63c-2.89-.23-8.96-.35-18.22-.35-7.34,0-12.7,.12-16.05,.35Z"/></svg>